<?xml version="1.0" encoding="UTF-8"?>
<svg xmlns="http://www.w3.org/2000/svg" xmlns:xlink="http://www.w3.org/1999/xlink" width="205px" height="221px" viewBox="0 0 103 111" version="1.1">
<defs>
<filter id="alpha" filterUnits="objectBoundingBox" x="0%" y="0%" width="100%" height="100%">
  <feColorMatrix type="matrix" in="SourceGraphic" values="0 0 0 0 1 0 0 0 0 1 0 0 0 0 1 0 0 0 1 0"/>
</filter>
<mask id="mask0">
  <g filter="url(#alpha)">
<rect x="0" y="0" width="103" height="111" style="fill:rgb(0%,0%,0%);fill-opacity:0.976471;stroke:none;"/>
  </g>
</mask>
<clipPath id="clip1">
  <rect x="0" y="0" width="103" height="111"/>
</clipPath>
<g id="surface5" clip-path="url(#clip1)">
<path style=" stroke:none;fill-rule:evenodd;fill:rgb(90.980392%,34.509804%,34.117647%);fill-opacity:1;" d="M 28.890625 15.820312 C 26.109375 18.34375 23.09375 20.601562 19.847656 22.601562 C 18.652344 24.238281 17.394531 25.828125 16.078125 27.375 C 11.40625 33.097656 8.640625 39.628906 7.789062 46.960938 C 7.425781 47.171875 7.175781 47.507812 7.035156 47.964844 C 6.582031 52.933594 6.832031 57.789062 7.789062 62.53125 C 8.613281 65.832031 9.117188 69.179688 9.296875 72.578125 C 7.589844 69.128906 6.585938 65.445312 6.28125 61.527344 C 6.28125 57.007812 6.28125 52.488281 6.28125 47.964844 C 8.238281 34.160156 15.105469 23.613281 26.878906 16.324219 C 27.550781 16.15625 28.21875 15.988281 28.890625 15.820312 Z M 28.890625 15.820312 "/>
</g>
<mask id="mask1">
  <g filter="url(#alpha)">
<rect x="0" y="0" width="103" height="111" style="fill:rgb(0%,0%,0%);fill-opacity:0.576471;stroke:none;"/>
  </g>
</mask>
<clipPath id="clip2">
  <rect x="0" y="0" width="103" height="111"/>
</clipPath>
<g id="surface8" clip-path="url(#clip2)">
<path style=" stroke:none;fill-rule:evenodd;fill:rgb(96.470588%,61.568627%,61.960784%);fill-opacity:1;" d="M 6.28125 47.964844 C 6.28125 52.488281 6.28125 57.007812 6.28125 61.527344 C 5.871094 59.351562 5.539062 57.089844 5.277344 54.746094 C 5.539062 52.402344 5.871094 50.144531 6.28125 47.964844 Z M 6.28125 47.964844 "/>
</g>
<mask id="mask2">
  <g filter="url(#alpha)">
<rect x="0" y="0" width="103" height="111" style="fill:rgb(0%,0%,0%);fill-opacity:0.952941;stroke:none;"/>
  </g>
</mask>
<clipPath id="clip3">
  <rect x="0" y="0" width="103" height="111"/>
</clipPath>
<g id="surface11" clip-path="url(#clip3)">
<path style=" stroke:none;fill-rule:evenodd;fill:rgb(58.039216%,16.862745%,14.117647%);fill-opacity:1;" d="M 7.789062 62.53125 C 8.121094 62.699219 8.457031 62.867188 8.792969 63.035156 C 9.625 66.222656 10.628906 69.402344 11.808594 72.578125 C 12.042969 75.128906 12.882812 77.472656 14.320312 79.609375 C 14.136719 79.953125 13.96875 80.285156 13.816406 80.613281 C 11.800781 78.265625 10.296875 75.585938 9.296875 72.578125 C 9.117188 69.179688 8.613281 65.832031 7.789062 62.53125 Z M 7.789062 62.53125 "/>
</g>
</defs>
<g id="surface1">
<path style=" stroke:none;fill-rule:evenodd;fill:rgb(94.901961%,46.666667%,46.666667%);fill-opacity:1;" d="M 58.535156 9.792969 C 52.667969 9.824219 46.804688 9.992188 40.949219 10.296875 C 46.773438 8.597656 52.636719 8.429688 58.535156 9.792969 Z M 58.535156 9.792969 "/>
<path style=" stroke:none;fill-rule:evenodd;fill:rgb(48.627451%,13.333333%,7.843137%);fill-opacity:1;" d="M 60.542969 10.796875 C 61.910156 10.886719 63.25 11.140625 64.5625 11.550781 C 64.984375 12.058594 65.152344 12.644531 65.066406 13.308594 C 66.230469 12.976562 67.402344 12.890625 68.582031 13.058594 C 68.019531 13.183594 67.515625 13.433594 67.074219 13.8125 C 68.921875 13.929688 70.261719 14.769531 71.09375 16.324219 C 65.855469 13.800781 60.328125 12.292969 54.515625 11.804688 C 52.769531 11.390625 50.925781 11.140625 48.988281 11.050781 C 52.835938 10.796875 56.6875 10.714844 60.542969 10.796875 Z M 60.542969 10.796875 "/>
<path style=" stroke:none;fill-rule:evenodd;fill:rgb(98.823529%,94.901961%,1.960784%);fill-opacity:1;" d="M 54.515625 11.804688 C 60.328125 12.292969 65.855469 13.800781 71.09375 16.324219 C 75.195312 18.796875 79.046875 21.640625 82.652344 24.863281 C 84.6875 27.230469 86.53125 29.742188 88.179688 32.394531 C 89.492188 34.527344 90.667969 36.703125 91.695312 38.925781 C 92.691406 42.574219 93.527344 46.257812 94.207031 49.976562 C 94.355469 54.703125 94.019531 59.390625 93.203125 64.039062 C 93.203125 64.375 93.203125 64.707031 93.203125 65.042969 C 91.964844 68.410156 90.625 71.757812 89.183594 75.089844 C 87.242188 78.539062 84.898438 81.71875 82.148438 84.632812 C 78.5 88.453125 74.3125 91.46875 69.585938 93.671875 C 66.058594 94.960938 62.539062 96.132812 59.035156 97.1875 C 54.015625 97.84375 48.992188 97.84375 43.964844 97.1875 C 41.339844 96.898438 38.828125 96.230469 36.425781 95.179688 C 25.167969 90.957031 16.964844 83.421875 11.808594 72.578125 C 10.628906 69.402344 9.625 66.222656 8.792969 63.035156 C 5.988281 41.097656 14.363281 25.109375 33.914062 15.066406 C 40.476562 12.136719 47.34375 11.046875 54.515625 11.804688 Z M 54.515625 11.804688 "/>
<path style=" stroke:none;fill-rule:evenodd;fill:rgb(94.509804%,47.843137%,48.235294%);fill-opacity:1;" d="M 40.949219 10.296875 C 36.953125 12.097656 32.933594 13.941406 28.890625 15.820312 C 28.21875 15.988281 27.550781 16.15625 26.878906 16.324219 C 31.066406 13.230469 35.757812 11.21875 40.949219 10.296875 Z M 40.949219 10.296875 "/>
<path style=" stroke:none;fill-rule:evenodd;fill:rgb(68.235294%,19.215686%,11.764706%);fill-opacity:1;" d="M 58.535156 9.792969 C 58.871094 9.792969 59.203125 9.792969 59.539062 9.792969 C 59.875 10.128906 60.207031 10.464844 60.542969 10.796875 C 56.6875 10.714844 52.835938 10.796875 48.988281 11.050781 C 50.925781 11.140625 52.769531 11.390625 54.515625 11.804688 C 47.34375 11.046875 40.476562 12.136719 33.914062 15.066406 C 14.363281 25.109375 5.988281 41.097656 8.792969 63.035156 C 8.457031 62.867188 8.121094 62.699219 7.789062 62.53125 C 7.789062 57.339844 7.789062 52.152344 7.789062 46.960938 C 8.640625 39.628906 11.40625 33.097656 16.078125 27.375 C 17.394531 25.828125 18.652344 24.238281 19.847656 22.601562 C 23.09375 20.601562 26.109375 18.34375 28.890625 15.820312 C 32.933594 13.941406 36.953125 12.097656 40.949219 10.296875 C 46.804688 9.992188 52.667969 9.824219 58.535156 9.792969 Z M 58.535156 9.792969 "/>
<path style=" stroke:none;fill-rule:evenodd;fill:rgb(37.647059%,12.156863%,10.588235%);fill-opacity:1;" d="M 59.539062 9.792969 C 71.960938 12.144531 81.675781 18.507812 88.679688 28.878906 C 87.539062 27.835938 86.199219 27.082031 84.660156 26.621094 C 85.269531 26.171875 85.269531 25.753906 84.660156 25.363281 C 84.039062 24.988281 83.371094 24.820312 82.652344 24.863281 C 79.046875 21.640625 75.195312 18.796875 71.09375 16.324219 C 70.261719 14.769531 68.921875 13.929688 67.074219 13.8125 C 67.515625 13.433594 68.019531 13.183594 68.582031 13.058594 C 67.402344 12.890625 66.230469 12.976562 65.066406 13.308594 C 65.152344 12.644531 64.984375 12.058594 64.5625 11.550781 C 63.25 11.140625 61.910156 10.886719 60.542969 10.796875 C 60.207031 10.464844 59.875 10.128906 59.539062 9.792969 Z M 59.539062 9.792969 "/>
<path style=" stroke:none;fill-rule:evenodd;fill:rgb(36.078431%,17.647059%,7.058824%);fill-opacity:1;" d="M 65.566406 22.351562 C 68.042969 22.660156 69.882812 23.832031 71.09375 25.867188 C 69.320312 24.5625 67.476562 23.390625 65.566406 22.351562 Z M 65.566406 22.351562 "/>
<path style=" stroke:none;fill-rule:evenodd;fill:rgb(39.215686%,15.294118%,7.058824%);fill-opacity:1;" d="M 65.566406 22.351562 C 61.945312 21.308594 58.257812 21.140625 54.515625 21.847656 C 45.359375 23.71875 36.316406 25.894531 27.382812 28.378906 C 29.703125 26.570312 32.046875 24.726562 34.417969 22.851562 C 34.914062 22.085938 35.667969 21.75 36.679688 21.847656 C 38.515625 22.097656 40.191406 22.765625 41.703125 23.859375 C 47.261719 22.496094 52.871094 21.488281 58.535156 20.84375 C 60.042969 20.925781 61.546875 21.011719 63.054688 21.09375 C 64.136719 21.144531 64.976562 21.5625 65.566406 22.351562 Z M 65.566406 22.351562 "/>
<path style=" stroke:none;fill-rule:evenodd;fill:rgb(71.372549%,14.901961%,14.901961%);fill-opacity:1;" d="M 34.417969 22.851562 C 36.375 22.65625 38.214844 22.992188 39.945312 23.859375 C 37.101562 24.839844 34.253906 25.59375 31.402344 26.117188 C 32.511719 25.09375 33.515625 24.007812 34.417969 22.851562 Z M 34.417969 22.851562 "/>
<use xlink:href="#surface5" mask="url(#mask0)"/>
<path style=" stroke:none;fill-rule:evenodd;fill:rgb(36.862745%,19.215686%,6.666667%);fill-opacity:1;" d="M 71.09375 25.867188 C 72.664062 26.984375 73.753906 28.492188 74.359375 30.386719 C 75.019531 34.207031 75.269531 38.058594 75.113281 41.9375 C 74.730469 38.492188 74.3125 34.976562 73.859375 31.390625 C 73.1875 29.382812 72.269531 27.542969 71.09375 25.867188 Z M 71.09375 25.867188 "/>
<path style=" stroke:none;fill-rule:evenodd;fill:rgb(77.254902%,15.686275%,15.686275%);fill-opacity:1;" d="M 65.566406 22.351562 C 67.476562 23.390625 69.320312 24.5625 71.09375 25.867188 C 72.269531 27.542969 73.1875 29.382812 73.859375 31.390625 C 74.3125 34.976562 74.730469 38.492188 75.113281 41.9375 C 74.984375 42.679688 75.148438 43.351562 75.617188 43.949219 C 77.460938 44.867188 79.300781 45.789062 81.144531 46.710938 C 70.359375 45.335938 59.640625 45.839844 48.988281 48.21875 C 45.136719 48.550781 41.285156 48.550781 37.433594 48.21875 C 36.554688 47.980469 35.71875 47.644531 34.917969 47.210938 C 40.695312 46.472656 46.386719 45.300781 52.003906 43.695312 C 58.617188 42.847656 65.230469 42.765625 71.847656 43.445312 C 72.101562 43.277344 72.351562 43.109375 72.601562 42.945312 C 61.515625 41.015625 50.628906 41.9375 39.945312 45.707031 C 37.265625 45.875 34.585938 46.039062 31.90625 46.207031 C 34.980469 48.90625 38.578125 49.992188 42.707031 49.472656 C 48.507812 48.957031 54.285156 48.203125 60.042969 47.210938 C 65.734375 46.878906 71.429688 46.878906 77.125 47.210938 C 80.191406 48.410156 83.371094 48.996094 86.671875 48.96875 C 88.433594 50.367188 89.105469 52.210938 88.679688 54.496094 C 88.679688 54.664062 88.679688 54.832031 88.679688 54.996094 C 87.023438 55.4375 85.347656 55.523438 83.65625 55.25 C 82.136719 54.148438 80.460938 53.394531 78.632812 52.988281 C 77.773438 51.828125 76.601562 51.074219 75.113281 50.726562 C 73.953125 50.042969 73.953125 49.625 75.113281 49.472656 C 78.796875 50.421875 82.3125 51.757812 85.664062 53.492188 C 85.832031 53.324219 86 53.15625 86.167969 52.988281 C 82.714844 50.574219 78.863281 49.152344 74.613281 48.71875 C 70.425781 48.382812 66.238281 48.382812 62.050781 48.71875 C 55.8125 49.875 49.53125 50.792969 43.210938 51.480469 C 37.6875 51.316406 32.746094 49.558594 28.386719 46.207031 C 20.648438 44.886719 18.890625 40.953125 23.113281 34.40625 C 23.359375 33.753906 23.441406 33.085938 23.363281 32.394531 C 24.871094 31.222656 26.210938 29.882812 27.382812 28.378906 C 36.316406 25.894531 45.359375 23.71875 54.515625 21.847656 C 58.257812 21.140625 61.945312 21.308594 65.566406 22.351562 Z M 65.566406 22.351562 "/>
<path style=" stroke:none;fill-rule:evenodd;fill:rgb(85.882353%,54.117647%,53.72549%);fill-opacity:1;" d="M 49.992188 25.363281 C 50.582031 25.253906 51.085938 25.421875 51.5 25.867188 C 51.164062 26.035156 50.832031 26.203125 50.496094 26.367188 C 52.273438 27.203125 52.359375 28.039062 50.746094 28.878906 C 50.496094 28.710938 50.242188 28.546875 49.992188 28.378906 C 50.167969 27.777344 50.417969 27.777344 50.746094 28.378906 C 50.578125 27.15625 49.824219 26.738281 48.484375 27.121094 C 48.71875 27.773438 48.71875 28.527344 48.484375 29.382812 C 47.433594 29.292969 46.429688 29.457031 45.472656 29.882812 C 44.5625 28.78125 44.394531 27.609375 44.96875 26.367188 C 46.113281 29.65625 46.78125 29.488281 46.976562 25.867188 C 48.101562 26.015625 49.105469 25.847656 49.992188 25.363281 Z M 49.992188 25.363281 "/>
<path style=" stroke:none;fill-rule:evenodd;fill:rgb(90.588235%,67.843137%,67.45098%);fill-opacity:1;" d="M 55.519531 24.863281 C 55.960938 24.796875 56.292969 24.964844 56.523438 25.363281 C 56.265625 26.230469 55.929688 27.066406 55.519531 27.875 C 55.027344 27.636719 54.609375 27.300781 54.261719 26.871094 C 54.136719 27.4375 53.886719 27.9375 53.507812 28.378906 C 52.867188 27.535156 52.363281 26.613281 52.003906 25.617188 C 52.625 25.457031 53.128906 25.710938 53.507812 26.367188 C 54.019531 25.097656 54.605469 25.097656 55.269531 26.367188 C 55.511719 25.894531 55.59375 25.390625 55.519531 24.863281 Z M 55.519531 24.863281 "/>
<path style=" stroke:none;fill-rule:evenodd;fill:rgb(87.45098%,58.823529%,58.039216%);fill-opacity:1;" d="M 60.042969 24.359375 C 60.867188 24.253906 61.621094 24.417969 62.300781 24.863281 C 62.226562 25.875 61.976562 26.878906 61.546875 27.875 C 60.21875 28.046875 59.046875 27.710938 58.03125 26.871094 C 57.683594 27.136719 57.433594 27.46875 57.277344 27.875 C 57.398438 24.09375 58.234375 23.925781 59.789062 27.375 C 60.039062 26.382812 60.121094 25.378906 60.042969 24.359375 Z M 60.042969 24.359375 "/>
<path style=" stroke:none;fill-rule:evenodd;fill:rgb(90.588235%,67.45098%,67.058824%);fill-opacity:1;" d="M 41.453125 27.375 C 43.792969 27.128906 44.460938 28.050781 43.460938 30.136719 C 41.0625 30.542969 40.394531 29.621094 41.453125 27.375 Z M 41.453125 27.375 "/>
<path style=" stroke:none;fill-rule:evenodd;fill:rgb(74.509804%,20.392157%,19.215686%);fill-opacity:1;" d="M 41.953125 27.875 C 42.5 27.9375 42.835938 28.269531 42.957031 28.878906 C 42.792969 29.214844 42.625 29.550781 42.457031 29.882812 C 41.988281 29.289062 41.820312 28.617188 41.953125 27.875 Z M 41.953125 27.875 "/>
<path style=" stroke:none;fill-rule:evenodd;fill:rgb(90.588235%,66.666667%,66.666667%);fill-opacity:1;" d="M 39.441406 27.875 C 40.042969 28.113281 40.375 28.613281 40.445312 29.382812 C 40.339844 31.210938 39.753906 31.378906 38.6875 29.882812 C 38.5625 30.449219 38.3125 30.953125 37.933594 31.390625 C 36.96875 30.65625 36.632812 29.820312 36.929688 28.878906 C 37.277344 29.144531 37.527344 29.480469 37.683594 29.882812 C 38.125 28.78125 38.714844 28.113281 39.441406 27.875 Z M 39.441406 27.875 "/>
<path style=" stroke:none;fill-rule:evenodd;fill:rgb(35.294118%,16.862745%,5.882353%);fill-opacity:1;" d="M 27.382812 28.378906 C 26.210938 29.882812 24.871094 31.222656 23.363281 32.394531 C 24.199219 30.554688 25.539062 29.214844 27.382812 28.378906 Z M 27.382812 28.378906 "/>
<path style=" stroke:none;fill-rule:evenodd;fill:rgb(92.941176%,67.45098%,67.843137%);fill-opacity:1;" d="M 52.503906 30.386719 C 54.460938 30.695312 56.136719 31.53125 57.527344 32.898438 C 55.316406 34.832031 52.804688 35.417969 49.992188 34.65625 C 48.90625 35.117188 47.902344 35.703125 46.976562 36.414062 C 46.128906 34.558594 46.632812 33.136719 48.484375 32.144531 C 49.992188 31.773438 51.332031 31.1875 52.503906 30.386719 Z M 52.503906 30.386719 "/>
<path style=" stroke:none;fill-rule:evenodd;fill:rgb(77.647059%,20.392157%,20%);fill-opacity:1;" d="M 53.507812 31.390625 C 56.382812 32.023438 56.550781 32.863281 54.011719 33.902344 C 51.914062 33.484375 49.90625 33.484375 47.984375 33.902344 C 49.578125 32.394531 51.417969 31.558594 53.507812 31.390625 Z M 53.507812 31.390625 "/>
<path style=" stroke:none;fill-rule:evenodd;fill:rgb(45.882353%,14.117647%,12.156863%);fill-opacity:1;" d="M 82.652344 24.863281 C 83.371094 24.820312 84.039062 24.988281 84.660156 25.363281 C 85.269531 25.753906 85.269531 26.171875 84.660156 26.621094 C 86.199219 27.082031 87.539062 27.835938 88.679688 28.878906 C 91.167969 32.011719 93.011719 35.527344 94.207031 39.425781 C 92.179688 37.894531 90.753906 35.886719 89.9375 33.402344 C 89.527344 32.734375 88.941406 32.402344 88.179688 32.394531 C 86.53125 29.742188 84.6875 27.230469 82.652344 24.863281 Z M 82.652344 24.863281 "/>
<path style=" stroke:none;fill-rule:evenodd;fill:rgb(92.941176%,67.058824%,66.666667%);fill-opacity:1;" d="M 56.523438 34.40625 C 57.703125 35.171875 57.789062 36.179688 56.777344 37.417969 C 54.71875 38.992188 52.457031 39.914062 49.992188 40.179688 C 48.632812 39.671875 47.457031 38.917969 46.476562 37.921875 C 47.902344 36.957031 49.410156 36.121094 50.996094 35.410156 C 53.054688 36.570312 54.898438 36.238281 56.523438 34.40625 Z M 56.523438 34.40625 "/>
<path style=" stroke:none;fill-rule:evenodd;fill:rgb(78.039216%,23.137255%,22.352941%);fill-opacity:1;" d="M 55.519531 35.910156 C 56.289062 35.921875 56.539062 36.253906 56.273438 36.917969 C 53.808594 39.015625 51.210938 39.347656 48.484375 37.921875 C 50.867188 37.253906 53.210938 36.582031 55.519531 35.910156 Z M 55.519531 35.910156 "/>
<path style=" stroke:none;fill-rule:evenodd;fill:rgb(60.392157%,16.862745%,15.294118%);fill-opacity:1;" d="M 88.179688 32.394531 C 88.941406 32.402344 89.527344 32.734375 89.9375 33.402344 C 90.753906 35.886719 92.179688 37.894531 94.207031 39.425781 C 96.15625 44.332031 96.992188 49.4375 96.71875 54.746094 C 96.984375 60.875 95.8125 66.652344 93.203125 72.074219 C 95.21875 64.757812 95.722656 57.390625 94.710938 49.976562 C 94.777344 45.945312 93.773438 42.261719 91.695312 38.925781 C 90.667969 36.703125 89.492188 34.527344 88.179688 32.394531 Z M 88.179688 32.394531 "/>
<path style=" stroke:none;fill-rule:evenodd;fill:rgb(38.431373%,7.058824%,7.058824%);fill-opacity:1;" d="M 75.113281 41.9375 C 75.546875 42.535156 76.050781 43.121094 76.621094 43.695312 C 80.097656 45.347656 83.445312 47.105469 86.671875 48.96875 C 83.371094 48.996094 80.191406 48.410156 77.125 47.210938 C 71.429688 46.878906 65.734375 46.878906 60.042969 47.210938 C 54.285156 48.203125 48.507812 48.957031 42.707031 49.472656 C 38.578125 49.992188 34.980469 48.90625 31.90625 46.207031 C 34.585938 46.039062 37.265625 45.875 39.945312 45.707031 C 50.628906 41.9375 61.515625 41.015625 72.601562 42.945312 C 72.351562 43.109375 72.101562 43.277344 71.847656 43.445312 C 65.230469 42.765625 58.617188 42.847656 52.003906 43.695312 C 46.386719 45.300781 40.695312 46.472656 34.917969 47.210938 C 35.71875 47.644531 36.554688 47.980469 37.433594 48.21875 C 41.285156 48.550781 45.136719 48.550781 48.988281 48.21875 C 59.640625 45.839844 70.359375 45.335938 81.144531 46.710938 C 79.300781 45.789062 77.460938 44.867188 75.617188 43.949219 C 75.148438 43.351562 74.984375 42.679688 75.113281 41.9375 Z M 75.113281 41.9375 "/>
<path style=" stroke:none;fill-rule:evenodd;fill:rgb(47.843137%,20.784314%,12.156863%);fill-opacity:1;" d="M 23.867188 46.460938 C 23.714844 46.785156 23.546875 47.121094 23.363281 47.464844 C 24.023438 48.375 24.777344 49.214844 25.625 49.976562 C 25.867188 50.453125 25.949219 50.953125 25.875 51.480469 C 25.539062 51.316406 25.207031 51.148438 24.871094 50.980469 C 24.253906 49.6875 23.417969 48.515625 22.359375 47.464844 C 22.613281 46.75 23.113281 46.417969 23.867188 46.460938 Z M 23.867188 46.460938 "/>
<path style=" stroke:none;fill-rule:evenodd;fill:rgb(90.588235%,30.196078%,23.137255%);fill-opacity:1;" d="M 91.695312 38.925781 C 93.773438 42.261719 94.777344 45.945312 94.710938 49.976562 C 94.542969 49.976562 94.375 49.976562 94.207031 49.976562 C 93.527344 46.257812 92.691406 42.574219 91.695312 38.925781 Z M 91.695312 38.925781 "/>
<path style=" stroke:none;fill-rule:evenodd;fill:rgb(37.647059%,9.019608%,7.843137%);fill-opacity:1;" d="M 23.363281 32.394531 C 23.441406 33.085938 23.359375 33.753906 23.113281 34.40625 C 18.890625 40.953125 20.648438 44.886719 28.386719 46.207031 C 32.746094 49.558594 37.6875 51.316406 43.210938 51.480469 C 49.53125 50.792969 55.8125 49.875 62.050781 48.71875 C 66.238281 48.382812 70.425781 48.382812 74.613281 48.71875 C 78.863281 49.152344 82.714844 50.574219 86.167969 52.988281 C 86 53.15625 85.832031 53.324219 85.664062 53.492188 C 82.3125 51.757812 78.796875 50.421875 75.113281 49.472656 C 73.953125 49.625 73.953125 50.042969 75.113281 50.726562 C 76.601562 51.074219 77.773438 51.828125 78.632812 52.988281 C 77.855469 52.886719 77.1875 52.550781 76.621094 51.984375 C 76.316406 52.046875 76.148438 52.214844 76.121094 52.488281 C 74.882812 51.5 73.710938 50.414062 72.601562 49.222656 C 64.3125 49.136719 56.105469 49.972656 47.984375 51.734375 C 40.40625 52.878906 33.539062 51.207031 27.382812 46.710938 C 26.222656 46.460938 25.050781 46.378906 23.867188 46.460938 C 23.074219 45.414062 22.152344 44.40625 21.101562 43.445312 C 19.597656 39.242188 20.351562 35.558594 23.363281 32.394531 Z M 23.363281 32.394531 "/>
<path style=" stroke:none;fill-rule:evenodd;fill:rgb(34.901961%,11.764706%,7.45098%);fill-opacity:1;" d="M 86.671875 48.96875 C 87.609375 49.152344 88.363281 49.652344 88.933594 50.476562 C 89.335938 51.917969 89.25 53.257812 88.679688 54.496094 C 89.105469 52.210938 88.433594 50.367188 86.671875 48.96875 Z M 86.671875 48.96875 "/>
<path style=" stroke:none;fill-rule:evenodd;fill:rgb(64.313725%,11.764706%,11.372549%);fill-opacity:1;" d="M 7.789062 46.960938 C 7.789062 52.152344 7.789062 57.339844 7.789062 62.53125 C 6.832031 57.789062 6.582031 52.933594 7.035156 47.964844 C 7.175781 47.507812 7.425781 47.171875 7.789062 46.960938 Z M 7.789062 46.960938 "/>
<path style=" stroke:none;fill-rule:evenodd;fill:rgb(92.941176%,26.666667%,22.745098%);fill-opacity:1;" d="M 23.867188 46.460938 C 25.050781 46.378906 26.222656 46.460938 27.382812 46.710938 C 33.539062 51.207031 40.40625 52.878906 47.984375 51.734375 C 56.105469 49.972656 64.3125 49.136719 72.601562 49.222656 C 73.710938 50.414062 74.882812 51.5 76.121094 52.488281 C 74.347656 53.453125 72.335938 53.785156 70.089844 53.492188 C 69.753906 53.492188 69.421875 53.492188 69.085938 53.492188 C 66.160156 52.910156 63.148438 52.828125 60.042969 53.238281 C 59.269531 53.796875 58.933594 54.550781 59.035156 55.5 C 58.148438 55.984375 57.144531 56.152344 56.023438 56.003906 C 56.15625 55.199219 55.988281 54.53125 55.519531 53.992188 C 47.566406 53.574219 39.527344 53.324219 31.402344 53.238281 C 29.640625 52.355469 27.796875 51.769531 25.875 51.480469 C 25.949219 50.953125 25.867188 50.453125 25.625 49.976562 C 24.777344 49.214844 24.023438 48.375 23.363281 47.464844 C 23.546875 47.121094 23.714844 46.785156 23.867188 46.460938 Z M 23.867188 46.460938 "/>
<path style=" stroke:none;fill-rule:evenodd;fill:rgb(33.333333%,74.901961%,42.745098%);fill-opacity:1;" d="M 25.875 51.984375 C 27.855469 52.753906 29.863281 53.425781 31.90625 53.992188 C 31.917969 54.492188 31.667969 54.828125 31.152344 54.996094 C 28.597656 54.128906 26.003906 53.460938 23.363281 52.988281 C 23.363281 53.660156 23.363281 54.328125 23.363281 54.996094 C 22.695312 54.996094 22.023438 54.996094 21.355469 54.996094 C 21.238281 51.730469 22.746094 50.726562 25.875 51.984375 Z M 25.875 51.984375 "/>
<path style=" stroke:none;fill-rule:evenodd;fill:rgb(31.372549%,14.509804%,9.803922%);fill-opacity:1;" d="M 69.085938 53.492188 C 66.234375 53.40625 63.386719 53.492188 60.542969 53.742188 C 59.878906 54.152344 59.542969 54.738281 59.539062 55.5 C 59.371094 55.5 59.203125 55.5 59.035156 55.5 C 58.933594 54.550781 59.269531 53.796875 60.042969 53.238281 C 63.148438 52.828125 66.160156 52.910156 69.085938 53.492188 Z M 69.085938 53.492188 "/>
<path style=" stroke:none;fill-rule:evenodd;fill:rgb(98.039216%,58.823529%,29.411765%);fill-opacity:1;" d="M 94.207031 49.976562 C 94.375 49.976562 94.542969 49.976562 94.710938 49.976562 C 94.792969 53.160156 94.710938 56.339844 94.457031 59.519531 C 94.429688 61.203125 94.011719 62.707031 93.203125 64.039062 C 94.019531 59.390625 94.355469 54.703125 94.207031 49.976562 Z M 94.207031 49.976562 "/>
<path style=" stroke:none;fill-rule:evenodd;fill:rgb(26.27451%,29.411765%,13.333333%);fill-opacity:1;" d="M 24.871094 50.980469 C 25.207031 51.148438 25.539062 51.316406 25.875 51.480469 C 25.875 51.648438 25.875 51.816406 25.875 51.984375 C 22.746094 50.726562 21.238281 51.730469 21.355469 54.996094 C 22.023438 54.996094 22.695312 54.996094 23.363281 54.996094 C 23.363281 54.328125 23.363281 53.660156 23.363281 52.988281 C 26.003906 53.460938 28.597656 54.128906 31.152344 54.996094 C 31.667969 54.828125 31.917969 54.492188 31.90625 53.992188 C 32.40625 53.992188 32.910156 53.992188 33.414062 53.992188 C 32.386719 54.703125 31.886719 55.707031 31.90625 57.007812 C 30.878906 55.613281 29.457031 54.773438 27.632812 54.496094 C 26.300781 55.410156 25.046875 56.414062 23.867188 57.507812 C 24.390625 56.226562 25.226562 55.136719 26.378906 54.246094 C 25.558594 53.996094 24.71875 53.914062 23.867188 53.992188 C 23.867188 54.496094 23.867188 54.996094 23.867188 55.5 C 22.859375 55.5 21.855469 55.5 20.851562 55.5 C 20.707031 53.917969 20.957031 52.410156 21.605469 50.980469 C 22.625 50.734375 23.710938 50.734375 24.871094 50.980469 Z M 24.871094 50.980469 "/>
<path style=" stroke:none;fill-rule:evenodd;fill:rgb(32.156863%,20.392157%,12.54902%);fill-opacity:1;" d="M 25.875 51.984375 C 25.875 51.816406 25.875 51.648438 25.875 51.480469 C 27.796875 51.769531 29.640625 52.355469 31.402344 53.238281 C 39.527344 53.324219 47.566406 53.574219 55.519531 53.992188 C 48.148438 53.992188 40.78125 53.992188 33.414062 53.992188 C 32.910156 53.992188 32.40625 53.992188 31.90625 53.992188 C 29.863281 53.425781 27.855469 52.753906 25.875 51.984375 Z M 25.875 51.984375 "/>
<path style=" stroke:none;fill-rule:evenodd;fill:rgb(25.882353%,22.745098%,10.980392%);fill-opacity:1;" d="M 78.632812 52.988281 C 78.632812 53.324219 78.632812 53.660156 78.632812 53.992188 C 75.785156 53.992188 72.9375 53.992188 70.089844 53.992188 C 70.089844 53.824219 70.089844 53.660156 70.089844 53.492188 C 72.335938 53.785156 74.347656 53.453125 76.121094 52.488281 C 76.148438 52.214844 76.316406 52.046875 76.621094 51.984375 C 77.1875 52.550781 77.855469 52.886719 78.632812 52.988281 Z M 78.632812 52.988281 "/>
<path style=" stroke:none;fill-rule:evenodd;fill:rgb(37.647059%,14.117647%,9.019608%);fill-opacity:1;" d="M 78.632812 52.988281 C 80.460938 53.394531 82.136719 54.148438 83.65625 55.25 C 85.347656 55.523438 87.023438 55.4375 88.679688 54.996094 C 86.222656 56.3125 83.707031 56.3125 81.144531 54.996094 C 80.789062 54.542969 80.285156 54.375 79.636719 54.496094 C 79.464844 54.074219 79.128906 53.90625 78.632812 53.992188 C 78.632812 53.660156 78.632812 53.324219 78.632812 52.988281 Z M 78.632812 52.988281 "/>
<use xlink:href="#surface8" mask="url(#mask1)"/>
<path style=" stroke:none;fill-rule:evenodd;fill:rgb(27.843137%,59.607843%,34.901961%);fill-opacity:1;" d="M 69.085938 53.492188 C 69.421875 53.492188 69.753906 53.492188 70.089844 53.492188 C 70.089844 53.660156 70.089844 53.824219 70.089844 53.992188 C 67.070312 53.910156 64.054688 53.992188 61.046875 54.246094 C 61.214844 54.410156 61.382812 54.578125 61.546875 54.746094 C 65.15625 54.832031 68.671875 55.082031 72.101562 55.5 C 70.089844 55.5 68.082031 55.5 66.070312 55.5 C 64.394531 55.5 62.722656 55.5 61.046875 55.5 C 61.046875 58.679688 61.046875 61.863281 61.046875 65.042969 C 60.878906 65.042969 60.710938 65.042969 60.542969 65.042969 C 60.628906 61.691406 60.542969 58.34375 60.292969 54.996094 C 60.101562 55.277344 59.847656 55.445312 59.539062 55.5 C 59.542969 54.738281 59.878906 54.152344 60.542969 53.742188 C 63.386719 53.492188 66.234375 53.40625 69.085938 53.492188 Z M 69.085938 53.492188 "/>
<path style=" stroke:none;fill-rule:evenodd;fill:rgb(33.333333%,78.431373%,43.529412%);fill-opacity:1;" d="M 70.089844 53.992188 C 72.9375 53.992188 75.785156 53.992188 78.632812 53.992188 C 79.128906 53.90625 79.464844 54.074219 79.636719 54.496094 C 78.566406 56.222656 77.058594 56.722656 75.113281 56.003906 C 74.78125 56.003906 74.445312 56.003906 74.109375 56.003906 C 73.574219 55.53125 72.902344 55.367188 72.101562 55.5 C 68.671875 55.082031 65.15625 54.832031 61.546875 54.746094 C 61.382812 54.578125 61.214844 54.410156 61.046875 54.246094 C 64.054688 53.992188 67.070312 53.910156 70.089844 53.992188 Z M 70.089844 53.992188 "/>
<path style=" stroke:none;fill-rule:evenodd;fill:rgb(21.176471%,26.666667%,24.313725%);fill-opacity:1;" d="M 66.070312 56.003906 C 66.070312 55.835938 66.070312 55.667969 66.070312 55.5 C 68.082031 55.5 70.089844 55.5 72.101562 55.5 C 72.902344 55.367188 73.574219 55.53125 74.109375 56.003906 C 73.078125 55.933594 72.238281 56.269531 71.597656 57.007812 C 71.539062 56.460938 71.203125 56.125 70.59375 56.003906 C 69.96875 56.222656 69.46875 56.558594 69.085938 57.007812 C 68.933594 55.855469 68.429688 55.6875 67.578125 56.503906 C 67.222656 56.050781 66.71875 55.882812 66.070312 56.003906 Z M 66.070312 56.003906 "/>
<path style=" stroke:none;fill-rule:evenodd;fill:rgb(92.941176%,92.941176%,92.941176%);fill-opacity:1;" d="M 47.984375 56.003906 C 48.980469 55.828125 49.648438 56.164062 49.992188 57.007812 C 49.75 57.46875 49.582031 57.96875 49.492188 58.511719 C 50.351562 59.726562 50.605469 61.066406 50.242188 62.53125 C 49.210938 63.8125 48.289062 65.152344 47.480469 66.550781 C 45.476562 66.863281 44.804688 66.195312 45.472656 64.539062 C 46.214844 63.707031 46.886719 62.785156 47.480469 61.777344 C 46.890625 59.789062 47.058594 57.863281 47.984375 56.003906 Z M 47.984375 56.003906 "/>
<path style=" stroke:none;fill-rule:evenodd;fill:rgb(32.54902%,76.862745%,42.352941%);fill-opacity:1;" d="M 33.414062 53.992188 C 40.78125 53.992188 48.148438 53.992188 55.519531 53.992188 C 55.988281 54.53125 56.15625 55.199219 56.023438 56.003906 C 57.144531 56.152344 58.148438 55.984375 59.035156 55.5 C 59.203125 55.5 59.371094 55.5 59.539062 55.5 C 59.847656 55.445312 60.101562 55.277344 60.292969 54.996094 C 60.542969 58.34375 60.628906 61.691406 60.542969 65.042969 C 60.617188 65.570312 60.535156 66.074219 60.292969 66.550781 C 60.195312 65.441406 59.945312 64.4375 59.539062 63.535156 C 59.175781 62.671875 58.839844 61.753906 58.535156 60.773438 C 57.363281 60.4375 56.1875 60.4375 55.015625 60.773438 C 54.597656 61.28125 54.429688 61.867188 54.515625 62.53125 C 54.179688 60.355469 53.84375 58.179688 53.507812 56.003906 C 48.929688 55.078125 44.238281 54.828125 39.441406 55.25 C 39.160156 55.441406 38.996094 55.691406 38.9375 56.003906 C 38.628906 56.058594 38.378906 56.226562 38.183594 56.503906 C 38.09375 57.777344 37.839844 58.949219 37.433594 60.019531 C 37.304688 59.179688 36.96875 58.429688 36.425781 57.761719 C 34.929688 57.511719 33.421875 57.425781 31.90625 57.507812 C 31.90625 57.339844 31.90625 57.175781 31.90625 57.007812 C 31.886719 55.707031 32.386719 54.703125 33.414062 53.992188 Z M 33.414062 53.992188 "/>
<path style=" stroke:none;fill-rule:evenodd;fill:rgb(15.686275%,23.529412%,18.431373%);fill-opacity:1;" d="M 53.507812 56.003906 C 52.148438 55.84375 50.976562 56.179688 49.992188 57.007812 C 49.648438 56.164062 48.980469 55.828125 47.984375 56.003906 C 47.445312 55.53125 46.777344 55.367188 45.972656 55.5 C 45.472656 55.5 44.96875 55.5 44.464844 55.5 C 42.589844 55.410156 40.746094 55.578125 38.9375 56.003906 C 38.996094 55.691406 39.160156 55.441406 39.441406 55.25 C 44.238281 54.828125 48.929688 55.078125 53.507812 56.003906 Z M 53.507812 56.003906 "/>
<path style=" stroke:none;fill-rule:evenodd;fill:rgb(22.352941%,17.254902%,43.921569%);fill-opacity:1;" d="M 65.566406 57.007812 C 65.238281 58.171875 64.902344 59.34375 64.5625 60.523438 C 64.675781 61.304688 65.011719 61.972656 65.566406 62.53125 C 64.933594 63.300781 64.429688 64.136719 64.0625 65.042969 C 63.613281 65.347656 63.109375 65.515625 62.554688 65.546875 C 62.054688 65.632812 61.71875 65.464844 61.546875 65.042969 C 61.546875 62.03125 61.546875 59.015625 61.546875 56.003906 C 63.15625 55.734375 64.496094 56.066406 65.566406 57.007812 Z M 65.566406 57.007812 "/>
<path style=" stroke:none;fill-rule:evenodd;fill:rgb(92.156863%,92.156863%,92.156863%);fill-opacity:1;" d="M 71.597656 57.007812 C 71.355469 57.46875 71.1875 57.96875 71.09375 58.511719 C 71.910156 59.886719 72.246094 61.394531 72.101562 63.035156 C 71.074219 63.574219 70.402344 64.414062 70.089844 65.546875 C 69.253906 65.546875 68.414062 65.546875 67.578125 65.546875 C 67.542969 64.8125 67.710938 64.144531 68.082031 63.535156 C 68.511719 63.019531 68.84375 62.433594 69.085938 61.777344 C 68.445312 60.183594 68.445312 58.59375 69.085938 57.007812 C 69.46875 56.558594 69.96875 56.222656 70.59375 56.003906 C 71.203125 56.125 71.539062 56.460938 71.597656 57.007812 Z M 71.597656 57.007812 "/>
<path style=" stroke:none;fill-rule:evenodd;fill:rgb(18.823529%,16.078431%,32.156863%);fill-opacity:1;" d="M 74.109375 56.003906 C 74.445312 56.003906 74.78125 56.003906 75.113281 56.003906 C 75.753906 57.5625 75.753906 59.066406 75.113281 60.523438 C 75.195312 59.339844 75.113281 58.167969 74.863281 57.007812 C 73.296875 56.242188 72.375 56.742188 72.101562 58.511719 C 72.363281 59.460938 72.699219 60.378906 73.105469 61.277344 C 72.949219 62.007812 72.613281 62.59375 72.101562 63.035156 C 72.246094 61.394531 71.910156 59.886719 71.09375 58.511719 C 71.1875 57.96875 71.355469 57.46875 71.597656 57.007812 C 72.238281 56.269531 73.078125 55.933594 74.109375 56.003906 Z M 74.109375 56.003906 "/>
<path style=" stroke:none;fill-rule:evenodd;fill:rgb(12.156863%,11.764706%,25.490196%);fill-opacity:1;" d="M 66.070312 55.5 C 66.070312 55.667969 66.070312 55.835938 66.070312 56.003906 C 66.15625 56.5 65.988281 56.835938 65.566406 57.007812 C 64.496094 56.066406 63.15625 55.734375 61.546875 56.003906 C 61.546875 59.015625 61.546875 62.03125 61.546875 65.042969 C 61.382812 65.042969 61.214844 65.042969 61.046875 65.042969 C 61.046875 61.863281 61.046875 58.679688 61.046875 55.5 C 62.722656 55.5 64.394531 55.5 66.070312 55.5 Z M 66.070312 55.5 "/>
<path style=" stroke:none;fill-rule:evenodd;fill:rgb(90.588235%,90.196078%,90.196078%);fill-opacity:1;" d="M 44.464844 55.5 C 44.96875 55.5 45.472656 55.5 45.972656 55.5 C 45.550781 57.101562 45.050781 58.691406 44.464844 60.273438 C 45.519531 61.265625 45.6875 62.355469 44.96875 63.535156 C 44.34375 64.613281 43.589844 65.617188 42.707031 66.550781 C 42.191406 66.382812 41.9375 66.046875 41.953125 65.546875 C 42.679688 64.511719 43.351562 63.425781 43.964844 62.28125 C 43.308594 61.875 42.972656 61.289062 42.957031 60.523438 C 43.46875 58.835938 43.972656 57.160156 44.464844 55.5 Z M 44.464844 55.5 "/>
<path style=" stroke:none;fill-rule:evenodd;fill:rgb(91.764706%,91.372549%,91.764706%);fill-opacity:1;" d="M 66.070312 56.003906 C 66.71875 55.882812 67.222656 56.050781 67.578125 56.503906 C 67.128906 57.765625 66.625 59.019531 66.070312 60.273438 C 66.53125 60.976562 66.863281 61.730469 67.074219 62.53125 C 66.628906 63.429688 66.125 64.351562 65.566406 65.292969 C 64.941406 65.664062 64.4375 65.582031 64.0625 65.042969 C 64.429688 64.136719 64.933594 63.300781 65.566406 62.53125 C 65.011719 61.972656 64.675781 61.304688 64.5625 60.523438 C 64.902344 59.34375 65.238281 58.171875 65.566406 57.007812 C 65.988281 56.835938 66.15625 56.5 66.070312 56.003906 Z M 66.070312 56.003906 "/>
<path style=" stroke:none;fill-rule:evenodd;fill:rgb(54.509804%,24.313725%,17.254902%);fill-opacity:1;" d="M 31.90625 57.507812 C 33.421875 57.425781 34.929688 57.511719 36.425781 57.761719 C 36.96875 58.429688 37.304688 59.179688 37.433594 60.019531 C 37.757812 60.992188 37.925781 61.996094 37.933594 63.035156 C 37.433594 63.050781 37.097656 62.796875 36.929688 62.28125 C 36.515625 61.058594 36.347656 59.800781 36.425781 58.511719 C 34.804688 58.425781 33.296875 58.089844 31.90625 57.507812 Z M 31.90625 57.507812 "/>
<path style=" stroke:none;fill-rule:evenodd;fill:rgb(21.960784%,16.862745%,42.745098%);fill-opacity:1;" d="M 44.464844 55.5 C 43.972656 57.160156 43.46875 58.835938 42.957031 60.523438 C 42.972656 61.289062 43.308594 61.875 43.964844 62.28125 C 43.351562 63.425781 42.679688 64.511719 41.953125 65.546875 C 41.453125 65.546875 40.949219 65.546875 40.445312 65.546875 C 38.460938 62.609375 37.957031 59.429688 38.9375 56.003906 C 40.746094 55.578125 42.589844 55.410156 44.464844 55.5 Z M 44.464844 55.5 "/>
<path style=" stroke:none;fill-rule:evenodd;fill:rgb(26.666667%,49.803922%,27.058824%);fill-opacity:1;" d="M 79.636719 54.496094 C 80.285156 54.375 80.789062 54.542969 81.144531 54.996094 C 80.480469 55.71875 79.640625 56.222656 78.632812 56.503906 C 78.121094 58.238281 77.621094 59.914062 77.125 61.527344 C 76.964844 55.984375 76.546875 55.816406 75.867188 61.023438 C 75.398438 61.707031 74.980469 62.378906 74.613281 63.035156 C 74.542969 62.132812 74.710938 61.296875 75.113281 60.523438 C 75.753906 59.066406 75.753906 57.5625 75.113281 56.003906 C 77.058594 56.722656 78.566406 56.222656 79.636719 54.496094 Z M 79.636719 54.496094 "/>
<path style=" stroke:none;fill-rule:evenodd;fill:rgb(46.666667%,23.529412%,16.470588%);fill-opacity:1;" d="M 59.539062 63.535156 C 59.539062 64.539062 59.539062 65.546875 59.539062 66.550781 C 58.699219 65.039062 58.363281 63.367188 58.535156 61.527344 C 56.886719 61.347656 55.546875 61.851562 54.515625 63.035156 C 54.515625 62.867188 54.515625 62.699219 54.515625 62.53125 C 54.429688 61.867188 54.597656 61.28125 55.015625 60.773438 C 56.1875 60.4375 57.363281 60.4375 58.535156 60.773438 C 58.839844 61.753906 59.175781 62.671875 59.539062 63.535156 Z M 59.539062 63.535156 "/>
<path style=" stroke:none;fill-rule:evenodd;fill:rgb(37.254902%,18.431373%,10.196078%);fill-opacity:1;" d="M 23.867188 57.507812 C 23.738281 58.347656 23.40625 59.101562 22.859375 59.769531 C 24.632812 60.164062 24.800781 60.914062 23.363281 62.03125 C 23.417969 60.949219 23.085938 60.785156 22.359375 61.527344 C 21.984375 59.917969 22.488281 58.578125 23.867188 57.507812 Z M 23.867188 57.507812 "/>
<path style=" stroke:none;fill-rule:evenodd;fill:rgb(20.784314%,17.254902%,36.470588%);fill-opacity:1;" d="M 45.972656 55.5 C 46.777344 55.367188 47.445312 55.53125 47.984375 56.003906 C 47.058594 57.863281 46.890625 59.789062 47.480469 61.777344 C 46.886719 62.785156 46.214844 63.707031 45.472656 64.539062 C 45.050781 64.367188 44.882812 64.035156 44.96875 63.535156 C 45.6875 62.355469 45.519531 61.265625 44.464844 60.273438 C 45.050781 58.691406 45.550781 57.101562 45.972656 55.5 Z M 45.972656 55.5 "/>
<path style=" stroke:none;fill-rule:evenodd;fill:rgb(20.392157%,16.862745%,36.470588%);fill-opacity:1;" d="M 69.085938 57.007812 C 68.445312 58.59375 68.445312 60.183594 69.085938 61.777344 C 68.84375 62.433594 68.511719 63.019531 68.082031 63.535156 C 67.410156 63.535156 67.074219 63.203125 67.074219 62.53125 C 66.863281 61.730469 66.53125 60.976562 66.070312 60.273438 C 66.625 59.019531 67.128906 57.765625 67.578125 56.503906 C 68.429688 55.6875 68.933594 55.855469 69.085938 57.007812 Z M 69.085938 57.007812 "/>
<path style=" stroke:none;fill-rule:evenodd;fill:rgb(20.784314%,16.470588%,40.392157%);fill-opacity:1;" d="M 53.507812 56.003906 C 53.632812 59.046875 53.464844 62.058594 53.007812 65.042969 C 51.929688 65.789062 50.757812 66.292969 49.492188 66.550781 C 48.820312 66.550781 48.148438 66.550781 47.480469 66.550781 C 48.289062 65.152344 49.210938 63.8125 50.242188 62.53125 C 50.605469 61.066406 50.351562 59.726562 49.492188 58.511719 C 49.582031 57.96875 49.75 57.46875 49.992188 57.007812 C 50.976562 56.179688 52.148438 55.84375 53.507812 56.003906 Z M 53.507812 56.003906 "/>
<path style=" stroke:none;fill-rule:evenodd;fill:rgb(34.509804%,16.078431%,10.196078%);fill-opacity:1;" d="M 23.363281 62.03125 C 23.296875 62.46875 23.464844 62.804688 23.867188 63.035156 C 24.316406 62.527344 24.652344 62.527344 24.871094 63.035156 C 24.691406 63.546875 24.355469 63.882812 23.867188 64.039062 C 23.394531 63.976562 22.890625 63.808594 22.359375 63.535156 C 22.320312 62.769531 22.65625 62.265625 23.363281 62.03125 Z M 23.363281 62.03125 "/>
<path style=" stroke:none;fill-rule:evenodd;fill:rgb(22.745098%,46.27451%,28.235294%);fill-opacity:1;" d="M 53.507812 56.003906 C 53.84375 58.179688 54.179688 60.355469 54.515625 62.53125 C 54.515625 62.699219 54.515625 62.867188 54.515625 63.035156 C 54.515625 63.203125 54.515625 63.367188 54.515625 63.535156 C 54.179688 64.539062 53.84375 65.546875 53.507812 66.550781 C 53.628906 65.902344 53.460938 65.398438 53.007812 65.042969 C 53.464844 62.058594 53.632812 59.046875 53.507812 56.003906 Z M 53.507812 56.003906 "/>
<path style=" stroke:none;fill-rule:evenodd;fill:rgb(21.960784%,16.862745%,44.313725%);fill-opacity:1;" d="M 75.113281 60.523438 C 74.710938 61.296875 74.542969 62.132812 74.613281 63.035156 C 74.058594 63.710938 73.554688 64.464844 73.105469 65.292969 C 72.628906 65.535156 72.125 65.621094 71.597656 65.546875 C 71.09375 65.546875 70.59375 65.546875 70.089844 65.546875 C 70.402344 64.414062 71.074219 63.574219 72.101562 63.035156 C 72.613281 62.59375 72.949219 62.007812 73.105469 61.277344 C 72.699219 60.378906 72.363281 59.460938 72.101562 58.511719 C 72.375 56.742188 73.296875 56.242188 74.863281 57.007812 C 75.113281 58.167969 75.195312 59.339844 75.113281 60.523438 Z M 75.113281 60.523438 "/>
<path style=" stroke:none;fill-rule:evenodd;fill:rgb(33.72549%,78.431373%,43.921569%);fill-opacity:1;" d="M 77.125 61.527344 C 76.40625 62.171875 76.070312 63.007812 76.121094 64.039062 C 75.277344 64.144531 74.773438 63.8125 74.613281 63.035156 C 74.980469 62.378906 75.398438 61.707031 75.867188 61.023438 C 76.546875 55.816406 76.964844 55.984375 77.125 61.527344 Z M 77.125 61.527344 "/>
<path style=" stroke:none;fill-rule:evenodd;fill:rgb(56.078431%,52.54902%,11.372549%);fill-opacity:1;" d="M 22.359375 63.535156 C 22.890625 63.808594 23.394531 63.976562 23.867188 64.039062 C 23.867188 64.207031 23.867188 64.375 23.867188 64.539062 C 23.53125 64.707031 23.195312 64.875 22.859375 65.042969 C 22.5625 64.714844 22.230469 64.382812 21.855469 64.039062 C 21.917969 63.734375 22.085938 63.566406 22.359375 63.535156 Z M 22.359375 63.535156 "/>
<path style=" stroke:none;fill-rule:evenodd;fill:rgb(20.392157%,20.784314%,26.666667%);fill-opacity:1;" d="M 44.96875 63.535156 C 44.882812 64.035156 45.050781 64.367188 45.472656 64.539062 C 44.804688 66.195312 45.476562 66.863281 47.480469 66.550781 C 48.148438 66.550781 48.820312 66.550781 49.492188 66.550781 C 46.902344 67.128906 44.222656 67.210938 41.453125 66.800781 C 41.007812 66.445312 40.675781 66.027344 40.445312 65.546875 C 40.949219 65.546875 41.453125 65.546875 41.953125 65.546875 C 41.9375 66.046875 42.191406 66.382812 42.707031 66.550781 C 43.589844 65.617188 44.34375 64.613281 44.96875 63.535156 Z M 44.96875 63.535156 "/>
<path style=" stroke:none;fill-rule:evenodd;fill:rgb(21.960784%,20.784314%,28.627451%);fill-opacity:1;" d="M 67.074219 62.53125 C 67.074219 63.203125 67.410156 63.535156 68.082031 63.535156 C 67.710938 64.144531 67.542969 64.8125 67.578125 65.546875 C 68.414062 65.546875 69.253906 65.546875 70.089844 65.546875 C 70.59375 65.546875 71.09375 65.546875 71.597656 65.546875 C 68.582031 66.214844 65.566406 66.214844 62.554688 65.546875 C 63.109375 65.515625 63.613281 65.347656 64.0625 65.042969 C 64.4375 65.582031 64.941406 65.664062 65.566406 65.292969 C 66.125 64.351562 66.628906 63.429688 67.074219 62.53125 Z M 67.074219 62.53125 "/>
<path style=" stroke:none;fill-rule:evenodd;fill:rgb(29.803922%,59.607843%,35.686275%);fill-opacity:1;" d="M 38.9375 56.003906 C 37.957031 59.429688 38.460938 62.609375 40.445312 65.546875 C 40.675781 66.027344 41.007812 66.445312 41.453125 66.800781 C 44.222656 67.210938 46.902344 67.128906 49.492188 66.550781 C 50.757812 66.292969 51.929688 65.789062 53.007812 65.042969 C 53.460938 65.398438 53.628906 65.902344 53.507812 66.550781 C 53.175781 66.886719 52.839844 67.21875 52.503906 67.554688 C 48.847656 68.019531 45.164062 68.1875 41.453125 68.054688 C 41.28125 67.636719 40.945312 67.46875 40.445312 67.554688 C 39.347656 66.136719 38.507812 64.632812 37.933594 63.035156 C 37.925781 61.996094 37.757812 60.992188 37.433594 60.019531 C 37.839844 58.949219 38.09375 57.777344 38.183594 56.503906 C 38.378906 56.226562 38.628906 56.058594 38.9375 56.003906 Z M 38.9375 56.003906 "/>
<path style=" stroke:none;fill-rule:evenodd;fill:rgb(36.078431%,20%,9.411765%);fill-opacity:1;" d="M 23.867188 64.539062 C 23.886719 65.085938 24.054688 65.585938 24.367188 66.046875 C 23.652344 67.308594 22.816406 68.480469 21.855469 69.5625 C 23.039062 70.433594 24.378906 70.765625 25.875 70.566406 C 25.773438 71.664062 25.4375 72.667969 24.871094 73.582031 C 24.238281 73.601562 23.738281 73.351562 23.363281 72.828125 C 24.035156 72.324219 24.703125 71.824219 25.375 71.320312 C 23.828125 71.148438 22.320312 70.8125 20.851562 70.316406 C 20.621094 70.109375 20.453125 69.859375 20.347656 69.5625 C 21.96875 68.507812 22.808594 67 22.859375 65.042969 C 23.195312 64.875 23.53125 64.707031 23.867188 64.539062 Z M 23.867188 64.539062 "/>
<path style=" stroke:none;fill-rule:evenodd;fill:rgb(94.901961%,26.666667%,23.137255%);fill-opacity:1;" d="M 59.539062 66.550781 C 59.777344 67.257812 60.277344 67.589844 61.046875 67.554688 C 63.464844 67.96875 65.976562 68.21875 68.582031 68.308594 C 68.121094 68.449219 67.789062 68.699219 67.578125 69.0625 C 62.960938 69.246094 58.4375 68.746094 54.011719 67.554688 C 54.460938 66.257812 54.628906 64.917969 54.515625 63.535156 C 54.515625 63.367188 54.515625 63.203125 54.515625 63.035156 C 55.546875 61.851562 56.886719 61.347656 58.535156 61.527344 C 58.363281 63.367188 58.699219 65.039062 59.539062 66.550781 Z M 59.539062 66.550781 "/>
<path style=" stroke:none;fill-rule:evenodd;fill:rgb(32.156863%,68.627451%,39.607843%);fill-opacity:1;" d="M 77.125 61.527344 C 76.957031 62.867188 76.789062 64.207031 76.621094 65.546875 C 76.125 65.457031 75.789062 65.625 75.617188 66.046875 C 75.617188 66.382812 75.449219 66.550781 75.113281 66.550781 C 70.457031 67.261719 65.769531 67.597656 61.046875 67.554688 C 60.277344 67.589844 59.777344 67.257812 59.539062 66.550781 C 59.539062 65.546875 59.539062 64.539062 59.539062 63.535156 C 59.945312 64.4375 60.195312 65.441406 60.292969 66.550781 C 60.535156 66.074219 60.617188 65.570312 60.542969 65.042969 C 60.710938 65.042969 60.878906 65.042969 61.046875 65.042969 C 61.214844 65.042969 61.382812 65.042969 61.546875 65.042969 C 61.71875 65.464844 62.054688 65.632812 62.554688 65.546875 C 65.566406 66.214844 68.582031 66.214844 71.597656 65.546875 C 72.125 65.621094 72.628906 65.535156 73.105469 65.292969 C 73.554688 64.464844 74.058594 63.710938 74.613281 63.035156 C 74.773438 63.8125 75.277344 64.144531 76.121094 64.039062 C 76.070312 63.007812 76.40625 62.171875 77.125 61.527344 Z M 77.125 61.527344 "/>
<path style=" stroke:none;fill-rule:evenodd;fill:rgb(33.333333%,16.078431%,9.019608%);fill-opacity:1;" d="M 75.617188 66.046875 C 75.789062 65.625 76.125 65.457031 76.621094 65.546875 C 77.460938 66.046875 78.128906 66.71875 78.632812 67.554688 C 77.917969 68.03125 77.082031 68.199219 76.121094 68.054688 C 77.980469 67.335938 77.8125 66.667969 75.617188 66.046875 Z M 75.617188 66.046875 "/>
<path style=" stroke:none;fill-rule:evenodd;fill:rgb(89.019608%,26.666667%,23.529412%);fill-opacity:1;" d="M 75.617188 66.046875 C 77.8125 66.667969 77.980469 67.335938 76.121094 68.054688 C 74.992188 68.453125 74.824219 69.125 75.617188 70.066406 C 75.449219 70.066406 75.28125 70.066406 75.113281 70.066406 C 74.613281 70.066406 74.109375 70.066406 73.605469 70.066406 C 73.667969 69.070312 73.332031 68.230469 72.601562 67.554688 C 73.503906 67.21875 74.339844 66.882812 75.113281 66.550781 C 75.449219 66.550781 75.617188 66.382812 75.617188 66.046875 Z M 75.617188 66.046875 "/>
<path style=" stroke:none;fill-rule:evenodd;fill:rgb(54.901961%,52.54902%,12.156863%);fill-opacity:1;" d="M 78.632812 67.554688 C 78.90625 67.585938 79.070312 67.75 79.132812 68.054688 C 78.179688 68.445312 77.34375 68.949219 76.621094 69.5625 C 76.316406 69.117188 76.148438 68.613281 76.121094 68.054688 C 77.082031 68.199219 77.917969 68.03125 78.632812 67.554688 Z M 78.632812 67.554688 "/>
<path style=" stroke:none;fill-rule:evenodd;fill:rgb(51.372549%,15.294118%,19.607843%);fill-opacity:1;" d="M 54.515625 63.535156 C 54.628906 64.917969 54.460938 66.257812 54.011719 67.554688 C 58.4375 68.746094 62.960938 69.246094 67.578125 69.0625 C 66.59375 69.824219 65.421875 70.15625 64.0625 70.066406 C 59.398438 69.351562 54.707031 69.019531 49.992188 69.0625 C 50.957031 68.777344 51.796875 68.273438 52.503906 67.554688 C 52.839844 67.21875 53.175781 66.886719 53.507812 66.550781 C 53.84375 65.546875 54.179688 64.539062 54.515625 63.535156 Z M 54.515625 63.535156 "/>
<path style=" stroke:none;fill-rule:evenodd;fill:rgb(28.235294%,16.862745%,9.019608%);fill-opacity:1;" d="M 76.121094 68.054688 C 76.148438 68.613281 76.316406 69.117188 76.621094 69.5625 C 76.449219 69.984375 76.117188 70.152344 75.617188 70.066406 C 74.824219 69.125 74.992188 68.453125 76.121094 68.054688 Z M 76.121094 68.054688 "/>
<path style=" stroke:none;fill-rule:evenodd;fill:rgb(76.078431%,19.215686%,16.470588%);fill-opacity:1;" d="M 94.710938 49.976562 C 95.722656 57.390625 95.21875 64.757812 93.203125 72.074219 C 93.203125 72.242188 93.203125 72.410156 93.203125 72.578125 C 91.113281 76.261719 88.519531 79.613281 85.414062 82.621094 C 84.625 83.839844 83.535156 84.507812 82.148438 84.632812 C 84.898438 81.71875 87.242188 78.539062 89.183594 75.089844 C 89.757812 74.882812 90.257812 74.546875 90.691406 74.082031 C 92.355469 71.324219 93.191406 68.3125 93.203125 65.042969 C 93.203125 64.707031 93.203125 64.375 93.203125 64.039062 C 94.011719 62.707031 94.429688 61.203125 94.457031 59.519531 C 94.710938 56.339844 94.792969 53.160156 94.710938 49.976562 Z M 94.710938 49.976562 "/>
<path style=" stroke:none;fill-rule:evenodd;fill:rgb(92.941176%,39.215686%,21.176471%);fill-opacity:1;" d="M 93.203125 65.042969 C 93.191406 68.3125 92.355469 71.324219 90.691406 74.082031 C 90.257812 74.546875 89.757812 74.882812 89.183594 75.089844 C 90.625 71.757812 91.964844 68.410156 93.203125 65.042969 Z M 93.203125 65.042969 "/>
<path style=" stroke:none;fill-rule:evenodd;fill:rgb(44.705882%,13.72549%,16.470588%);fill-opacity:1;" d="M 75.113281 66.550781 C 74.339844 66.882812 73.503906 67.21875 72.601562 67.554688 C 73.332031 68.230469 73.667969 69.070312 73.605469 70.066406 C 74.109375 70.066406 74.613281 70.066406 75.113281 70.066406 C 75.113281 70.402344 75.113281 70.734375 75.113281 71.070312 C 74.019531 71.472656 73.179688 72.226562 72.601562 73.332031 C 71.488281 73.96875 70.316406 74.472656 69.085938 74.835938 C 64.5625 75.058594 60.039062 74.976562 55.519531 74.585938 C 52.378906 74.5625 49.28125 74.898438 46.222656 75.589844 C 43.335938 75.464844 40.824219 74.460938 38.6875 72.578125 C 38.035156 70.464844 38.789062 69.125 40.949219 68.558594 C 40.765625 68.214844 40.597656 67.878906 40.445312 67.554688 C 40.945312 67.46875 41.28125 67.636719 41.453125 68.054688 C 43.871094 68.550781 46.386719 68.886719 48.988281 69.0625 C 46.0625 69.476562 43.050781 69.726562 39.945312 69.816406 C 38.589844 71.136719 38.757812 72.308594 40.445312 73.332031 C 42.351562 74.226562 44.359375 74.644531 46.476562 74.585938 C 49.242188 74.285156 52.007812 73.949219 54.765625 73.582031 C 59.867188 74.65625 64.976562 74.738281 70.089844 73.832031 C 72.726562 73.210938 73.648438 71.621094 72.855469 69.0625 C 71.121094 68.503906 69.363281 68.503906 67.578125 69.0625 C 67.789062 68.699219 68.121094 68.449219 68.582031 68.308594 C 65.976562 68.21875 63.464844 67.96875 61.046875 67.554688 C 65.769531 67.597656 70.457031 67.261719 75.113281 66.550781 Z M 75.113281 66.550781 "/>
<path style=" stroke:none;fill-rule:evenodd;fill:rgb(23.529412%,16.862745%,11.764706%);fill-opacity:1;" d="M 52.503906 67.554688 C 51.796875 68.273438 50.957031 68.777344 49.992188 69.0625 C 49.65625 69.0625 49.324219 69.0625 48.988281 69.0625 C 46.386719 68.886719 43.871094 68.550781 41.453125 68.054688 C 45.164062 68.1875 48.847656 68.019531 52.503906 67.554688 Z M 52.503906 67.554688 "/>
<path style=" stroke:none;fill-rule:evenodd;fill:rgb(85.490196%,24.313725%,49.019608%);fill-opacity:1;" d="M 48.988281 69.0625 C 49.324219 69.0625 49.65625 69.0625 49.992188 69.0625 C 54.707031 69.019531 59.398438 69.351562 64.0625 70.066406 C 65.421875 70.15625 66.59375 69.824219 67.578125 69.0625 C 69.363281 68.503906 71.121094 68.503906 72.855469 69.0625 C 73.648438 71.621094 72.726562 73.210938 70.089844 73.832031 C 64.976562 74.738281 59.867188 74.65625 54.765625 73.582031 C 52.007812 73.949219 49.242188 74.285156 46.476562 74.585938 C 44.359375 74.644531 42.351562 74.226562 40.445312 73.332031 C 38.757812 72.308594 38.589844 71.136719 39.945312 69.816406 C 43.050781 69.726562 46.0625 69.476562 48.988281 69.0625 Z M 48.988281 69.0625 "/>
<path style=" stroke:none;fill-rule:evenodd;fill:rgb(43.529412%,10.980392%,22.352941%);fill-opacity:1;" d="M 70.59375 70.066406 C 71.03125 70 71.367188 70.167969 71.597656 70.566406 C 71.011719 71.113281 70.34375 71.53125 69.585938 71.824219 C 67.09375 72.351562 64.582031 72.769531 62.050781 73.078125 C 59.035156 72.574219 56.019531 72.074219 53.007812 71.574219 C 50.667969 71.8125 48.324219 71.980469 45.972656 72.074219 C 44.203125 72.140625 42.53125 71.886719 40.949219 71.320312 C 44.875 71.648438 48.8125 71.566406 52.757812 71.070312 C 55.878906 71.203125 58.976562 71.539062 62.050781 72.074219 C 64.242188 71.941406 66.417969 71.691406 68.582031 71.320312 C 69.496094 71.222656 70.167969 70.800781 70.59375 70.066406 Z M 70.59375 70.066406 "/>
<path style=" stroke:none;fill-rule:evenodd;fill:rgb(43.137255%,23.137255%,12.156863%);fill-opacity:1;" d="M 24.871094 73.582031 C 26.25 73.425781 27.589844 73.589844 28.890625 74.082031 C 28.347656 74.6875 27.679688 75.023438 26.878906 75.089844 C 26.210938 74.585938 25.539062 74.082031 24.871094 73.582031 Z M 24.871094 73.582031 "/>
<path style=" stroke:none;fill-rule:evenodd;fill:rgb(96.862745%,26.27451%,22.352941%);fill-opacity:1;" d="M 31.90625 57.007812 C 31.90625 57.175781 31.90625 57.339844 31.90625 57.507812 C 33.296875 58.089844 34.804688 58.425781 36.425781 58.511719 C 36.347656 59.800781 36.515625 61.058594 36.929688 62.28125 C 37.097656 62.796875 37.433594 63.050781 37.933594 63.035156 C 38.507812 64.632812 39.347656 66.136719 40.445312 67.554688 C 40.597656 67.878906 40.765625 68.214844 40.949219 68.558594 C 38.789062 69.125 38.035156 70.464844 38.6875 72.578125 C 40.824219 74.460938 43.335938 75.464844 46.222656 75.589844 C 49.28125 74.898438 52.378906 74.5625 55.519531 74.585938 C 60.039062 74.976562 64.5625 75.058594 69.085938 74.835938 C 70.316406 74.472656 71.488281 73.96875 72.601562 73.332031 C 73.179688 72.226562 74.019531 71.472656 75.113281 71.070312 C 75.617188 71.238281 75.953125 71.574219 76.121094 72.074219 C 75.917969 72.707031 75.582031 73.292969 75.113281 73.832031 C 75.667969 75.066406 76.167969 76.324219 76.621094 77.597656 C 76.453125 77.765625 76.285156 77.933594 76.121094 78.101562 C 74.957031 77.367188 73.785156 77.199219 72.601562 77.597656 C 72.976562 78.21875 73.144531 78.890625 73.105469 79.609375 C 70.378906 80.886719 67.699219 82.3125 65.066406 83.878906 C 63.457031 83.929688 61.949219 84.261719 60.542969 84.882812 C 54.355469 84.792969 48.15625 84.707031 41.953125 84.632812 C 39.601562 84.714844 37.257812 84.628906 34.917969 84.378906 C 33.835938 83.710938 32.828125 82.957031 31.90625 82.121094 C 31.992188 81.457031 31.824219 80.871094 31.402344 80.363281 C 29.292969 79.390625 27.449219 78.050781 25.875 76.34375 C 26.316406 75.988281 26.652344 75.570312 26.878906 75.089844 C 27.679688 75.023438 28.347656 74.6875 28.890625 74.082031 C 27.589844 73.589844 26.25 73.425781 24.871094 73.582031 C 25.4375 72.667969 25.773438 71.664062 25.875 70.566406 C 24.378906 70.765625 23.039062 70.433594 21.855469 69.5625 C 22.816406 68.480469 23.652344 67.308594 24.367188 66.046875 C 24.054688 65.585938 23.886719 65.085938 23.867188 64.539062 C 23.867188 64.375 23.867188 64.207031 23.867188 64.039062 C 24.355469 63.882812 24.691406 63.546875 24.871094 63.035156 C 24.652344 62.527344 24.316406 62.527344 23.867188 63.035156 C 23.464844 62.804688 23.296875 62.46875 23.363281 62.03125 C 24.800781 60.914062 24.632812 60.164062 22.859375 59.769531 C 23.40625 59.101562 23.738281 58.347656 23.867188 57.507812 C 25.046875 56.414062 26.300781 55.410156 27.632812 54.496094 C 29.457031 54.773438 30.878906 55.613281 31.90625 57.007812 Z M 31.90625 57.007812 "/>
<path style=" stroke:none;fill-rule:evenodd;fill:rgb(45.098039%,11.764706%,10.980392%);fill-opacity:1;" d="M 31.90625 64.039062 C 32.847656 63.984375 33.015625 64.234375 32.40625 64.792969 C 29.320312 66.429688 29.15625 66.179688 31.90625 64.039062 Z M 31.90625 64.039062 "/>
<path style=" stroke:none;fill-rule:evenodd;fill:rgb(45.490196%,11.764706%,10.588235%);fill-opacity:1;" d="M 30.398438 62.53125 C 30.925781 62.457031 31.429688 62.539062 31.90625 62.78125 C 31.105469 63.308594 30.351562 63.894531 29.644531 64.539062 C 29.492188 63.753906 29.746094 63.085938 30.398438 62.53125 Z M 30.398438 62.53125 "/>
<use xlink:href="#surface11" mask="url(#mask2)"/>
<path style=" stroke:none;fill-rule:evenodd;fill:rgb(39.215686%,23.921569%,8.627451%);fill-opacity:1;" d="M 26.878906 75.089844 C 26.652344 75.570312 26.316406 75.988281 25.875 76.34375 C 27.449219 78.050781 29.292969 79.390625 31.402344 80.363281 C 31.824219 80.871094 31.992188 81.457031 31.90625 82.121094 C 29.605469 80.414062 27.34375 78.574219 25.121094 76.59375 C 25.136719 75.601562 25.726562 75.097656 26.878906 75.089844 Z M 26.878906 75.089844 "/>
<path style=" stroke:none;fill-rule:evenodd;fill:rgb(47.843137%,12.941176%,11.372549%);fill-opacity:1;" d="M 66.574219 77.597656 C 67.515625 78.183594 67.765625 79.019531 67.328125 80.109375 C 66.820312 79.34375 66.570312 78.507812 66.574219 77.597656 Z M 66.574219 77.597656 "/>
<path style=" stroke:none;fill-rule:evenodd;fill:rgb(74.117647%,21.960784%,19.607843%);fill-opacity:1;" d="M 35.925781 76.09375 C 36.109375 77.140625 36.109375 78.3125 35.925781 79.609375 C 36.425781 79.609375 36.929688 79.609375 37.433594 79.609375 C 36.882812 83.097656 36.378906 83.261719 35.925781 80.109375 C 35.421875 80.109375 34.917969 80.109375 34.417969 80.109375 C 34.363281 78.546875 34.867188 77.207031 35.925781 76.09375 Z M 35.925781 76.09375 "/>
<path style=" stroke:none;fill-rule:evenodd;fill:rgb(62.745098%,18.823529%,16.862745%);fill-opacity:1;" d="M 51.5 78.605469 C 52.128906 79.023438 52.460938 79.691406 52.503906 80.613281 C 52.183594 83.710938 51.683594 83.792969 50.996094 80.863281 C 51.324219 80.140625 51.492188 79.386719 51.5 78.605469 Z M 51.5 78.605469 "/>
<path style=" stroke:none;fill-rule:evenodd;fill:rgb(54.509804%,50.588235%,6.666667%);fill-opacity:1;" d="M 69.085938 82.621094 C 69.195312 83.210938 69.027344 83.714844 68.582031 84.128906 C 68.277344 84.066406 68.109375 83.898438 68.082031 83.625 C 68.414062 83.292969 68.75 82.957031 69.085938 82.621094 Z M 69.085938 82.621094 "/>
<path style=" stroke:none;fill-rule:evenodd;fill:rgb(55.294118%,23.529412%,14.117647%);fill-opacity:1;" d="M 31.90625 82.121094 C 32.828125 82.957031 33.835938 83.710938 34.917969 84.378906 C 37.257812 84.628906 39.601562 84.714844 41.953125 84.632812 C 41.953125 84.796875 41.953125 84.964844 41.953125 85.132812 C 40.136719 85.507812 38.292969 85.675781 36.425781 85.636719 C 34.222656 85.292969 32.714844 84.121094 31.90625 82.121094 Z M 31.90625 82.121094 "/>
<path style=" stroke:none;fill-rule:evenodd;fill:rgb(35.294118%,17.254902%,7.843137%);fill-opacity:1;" d="M 76.121094 72.074219 C 78.003906 72.976562 78.003906 73.8125 76.121094 74.585938 C 78.722656 78.609375 77.886719 79.78125 73.605469 78.101562 C 73.75 79 73.582031 79.835938 73.105469 80.613281 C 72.769531 80.445312 72.433594 80.277344 72.101562 80.109375 C 71.265625 81.191406 70.261719 82.027344 69.085938 82.621094 C 68.75 82.957031 68.414062 83.292969 68.082031 83.625 C 63.21875 85.335938 58.195312 86.003906 53.007812 85.636719 C 49.417969 85.136719 45.730469 84.96875 41.953125 85.132812 C 41.953125 84.964844 41.953125 84.796875 41.953125 84.632812 C 48.15625 84.707031 54.355469 84.792969 60.542969 84.882812 C 61.949219 84.261719 63.457031 83.929688 65.066406 83.878906 C 67.699219 82.3125 70.378906 80.886719 73.105469 79.609375 C 73.144531 78.890625 72.976562 78.21875 72.601562 77.597656 C 73.785156 77.199219 74.957031 77.367188 76.121094 78.101562 C 76.285156 77.933594 76.453125 77.765625 76.621094 77.597656 C 76.167969 76.324219 75.667969 75.066406 75.113281 73.832031 C 75.582031 73.292969 75.917969 72.707031 76.121094 72.074219 Z M 76.121094 72.074219 "/>
<path style=" stroke:none;fill-rule:evenodd;fill:rgb(79.607843%,75.686275%,12.54902%);fill-opacity:1;" d="M 41.953125 85.132812 C 45.730469 84.96875 49.417969 85.136719 53.007812 85.636719 C 47.386719 85.789062 41.863281 85.789062 36.425781 85.636719 C 38.292969 85.675781 40.136719 85.507812 41.953125 85.132812 Z M 41.953125 85.132812 "/>
<path style=" stroke:none;fill-rule:evenodd;fill:rgb(66.666667%,18.431373%,17.647059%);fill-opacity:1;" d="M 93.203125 72.578125 C 88.296875 84.011719 80.089844 92.046875 68.582031 96.683594 C 60.90625 98.644531 53.203125 99.144531 45.472656 98.191406 C 49.828125 98.277344 54.183594 98.191406 58.535156 97.941406 C 59.644531 97.84375 60.648438 97.59375 61.546875 97.1875 C 63.945312 96.304688 66.371094 95.46875 68.835938 94.675781 C 69.351562 94.507812 69.601562 94.171875 69.585938 93.671875 C 71.652344 93.597656 73.492188 92.929688 75.113281 91.664062 C 76.214844 90.644531 77.386719 89.726562 78.632812 88.902344 C 80.113281 87.675781 81.285156 86.253906 82.148438 84.632812 C 83.535156 84.507812 84.625 83.839844 85.414062 82.621094 C 88.519531 79.613281 91.113281 76.261719 93.203125 72.578125 Z M 93.203125 72.578125 "/>
<path style=" stroke:none;fill-rule:evenodd;fill:rgb(94.901961%,40%,21.960784%);fill-opacity:1;" d="M 82.148438 84.632812 C 81.285156 86.253906 80.113281 87.675781 78.632812 88.902344 C 77.386719 89.726562 76.214844 90.644531 75.113281 91.664062 C 73.492188 92.929688 71.652344 93.597656 69.585938 93.671875 C 74.3125 91.46875 78.5 88.453125 82.148438 84.632812 Z M 82.148438 84.632812 "/>
<path style=" stroke:none;fill-rule:evenodd;fill:rgb(37.254902%,11.764706%,9.803922%);fill-opacity:1;" d="M 11.808594 72.578125 C 16.964844 83.421875 25.167969 90.957031 36.425781 95.179688 C 36.921875 96.929688 38.09375 97.601562 39.945312 97.1875 C 39.945312 97.691406 39.945312 98.191406 39.945312 98.695312 C 41.316406 98.53125 42.488281 98.863281 43.460938 99.699219 C 30.835938 97.496094 20.953125 91.132812 13.816406 80.613281 C 13.96875 80.285156 14.136719 79.953125 14.320312 79.609375 C 12.882812 77.472656 12.042969 75.128906 11.808594 72.578125 Z M 11.808594 72.578125 "/>
<path style=" stroke:none;fill-rule:evenodd;fill:rgb(98.039216%,58.431373%,29.803922%);fill-opacity:1;" d="M 69.585938 93.671875 C 69.601562 94.171875 69.351562 94.507812 68.835938 94.675781 C 66.371094 95.46875 63.945312 96.304688 61.546875 97.1875 C 60.710938 97.1875 59.875 97.1875 59.035156 97.1875 C 62.539062 96.132812 66.058594 94.960938 69.585938 93.671875 Z M 69.585938 93.671875 "/>
<path style=" stroke:none;fill-rule:evenodd;fill:rgb(54.117647%,13.333333%,12.941176%);fill-opacity:1;" d="M 36.425781 95.179688 C 38.828125 96.230469 41.339844 96.898438 43.964844 97.1875 C 44.464844 97.523438 44.96875 97.855469 45.472656 98.191406 C 53.203125 99.144531 60.90625 98.644531 68.582031 96.683594 C 65.140625 98.386719 61.457031 99.472656 57.527344 99.949219 C 52.824219 100.328125 48.132812 100.242188 43.460938 99.699219 C 42.488281 98.863281 41.316406 98.53125 39.945312 98.695312 C 39.945312 98.191406 39.945312 97.691406 39.945312 97.1875 C 38.09375 97.601562 36.921875 96.929688 36.425781 95.179688 Z M 36.425781 95.179688 "/>
<path style=" stroke:none;fill-rule:evenodd;fill:rgb(93.333333%,40.392157%,24.313725%);fill-opacity:1;" d="M 43.964844 97.1875 C 48.992188 97.84375 54.015625 97.84375 59.035156 97.1875 C 59.875 97.1875 60.710938 97.1875 61.546875 97.1875 C 60.648438 97.59375 59.644531 97.84375 58.535156 97.941406 C 54.183594 98.191406 49.828125 98.277344 45.472656 98.191406 C 44.96875 97.855469 44.464844 97.523438 43.964844 97.1875 Z M 43.964844 97.1875 "/>
</g>
</svg>
